<?xml version="1.0" standalone="no"?>
<!DOCTYPE svg PUBLIC "-//W3C//DTD SVG 20010904//EN"
 "http://www.w3.org/TR/2001/REC-SVG-20010904/DTD/svg10.dtd">
<svg version="1.0" xmlns="http://www.w3.org/2000/svg"
 width="500.000000pt" height="500.000000pt" viewBox="0 0 500.000000 500.000000"
 preserveAspectRatio="xMidYMid meet">
<metadata>
Created by potrace 1.14, written by Peter Selinger 2001-2017
</metadata>
<g transform="translate(0.000000,500.000000) scale(0.100000,-0.100000)"
fill="#000000" stroke="none">
<path d="M2455 3874 c-62 -22 -102 -62 -166 -170 l-59 -99 -52 0 -51 0 -27
-137 c-17 -83 -35 -147 -47 -165 -11 -15 -22 -32 -24 -38 -4 -11 -227 -387
-263 -445 -12 -19 -26 -42 -29 -50 -4 -8 -16 -28 -27 -45 -11 -16 -27 -44 -37
-62 -21 -40 -29 -35 -38 23 -3 25 -8 56 -11 67 -2 12 -6 40 -9 62 -3 22 -7 51
-10 65 -2 13 -7 40 -10 60 -3 20 -8 47 -10 60 -3 14 -7 43 -10 65 -3 22 -7 51
-10 65 -4 21 -33 193 -51 307 -3 18 -11 62 -18 100 l-12 67 -243 1 c-150 0
-246 -4 -251 -10 -7 -9 -36 -64 -262 -505 -50 -96 -116 -224 -148 -285 -54
-103 -99 -192 -345 -670 -54 -104 -101 -194 -106 -199 -5 -6 -9 -14 -9 -18 0
-5 95 -7 212 -6 l212 3 68 130 67 130 305 1 c168 0 310 -2 315 -5 5 -3 11 -28
14 -56 6 -48 4 -53 -77 -190 -169 -284 -179 -303 -172 -329 3 -14 16 -35 28
-46 22 -20 26 -20 1173 -18 1100 3 1152 4 1185 22 64 34 91 69 237 316 80 135
165 279 190 320 24 41 48 82 53 90 5 8 66 112 136 230 70 118 158 267 196 330
37 63 72 122 77 130 5 8 56 94 112 190 57 96 115 194 131 217 15 23 28 44 28
48 0 3 16 31 35 61 19 30 35 56 35 58 0 2 32 56 71 121 80 133 87 165 45 202
l-27 23 -1137 -1 c-957 0 -1143 -3 -1177 -15z m-1251 -854 c3 -30 11 -89 16
-130 5 -41 12 -100 15 -130 3 -30 8 -62 10 -70 2 -8 6 -45 10 -82 l6 -68 -200
0 c-111 0 -201 4 -201 8 0 4 4 12 9 18 5 5 71 133 147 284 76 151 145 286 153
300 18 27 15 37 35 -130z"/>
</g>
</svg>
